<svg id="Layer_1" data-name="Layer 1" xmlns="http://www.w3.org/2000/svg" viewBox="0 0 56 56"><defs><style>.cls-1{fill:#fff;}.cls-1,.cls-3,.cls-4,.cls-5,.cls-6{fill-rule:evenodd;}.cls-2{fill:#d3d3d3;}.cls-3{fill:#3e82f1;}.cls-4{fill:#32a753;}.cls-5{fill:#f9bb00;}.cls-6{fill:#e74133;}</style></defs><path class="cls-1" d="M28,55.7A27.7,27.7,0,1,1,55.8,28,27.78,27.78,0,0,1,28,55.7Z" transform="translate(0 0)"/><path class="cls-2" d="M28,.5A27.5,27.5,0,1,1,.5,28,27.48,27.48,0,0,1,28,.5M28,0A28,28,0,1,0,56,28,28,28,0,0,0,28,0Z" transform="translate(0 0)"/><path class="cls-3" d="M43.1,28.4a17.33,17.33,0,0,0-.3-3.2H28.3v6h8.3a7.21,7.21,0,0,1-3.1,4.7v3.9h5a15.43,15.43,0,0,0,4.6-11.4Z" transform="translate(0 0)"/><path class="cls-4" d="M28.3,43.4a14.78,14.78,0,0,0,10.2-3.7l-5-3.9a9.39,9.39,0,0,1-5.2,1.5,9.13,9.13,0,0,1-8.6-6.4H14.5v4a15.44,15.44,0,0,0,13.8,8.5Z" transform="translate(0 0)"/><path class="cls-5" d="M19.7,30.9a8.66,8.66,0,0,1,0-5.8v-4H14.5a15.68,15.68,0,0,0,0,13.8l5.2-4Z" transform="translate(0 0)"/><path class="cls-6" d="M28.3,18.7A8.4,8.4,0,0,1,34.2,21l4.4-4.4a14.87,14.87,0,0,0-10.3-4,15.51,15.51,0,0,0-13.8,8.5l5.2,4a9.13,9.13,0,0,1,8.6-6.4Z" transform="translate(0 0)"/></svg>